<svg width="120" height="120" viewBox="0 0 120 120" xmlns="http://www.w3.org/2000/svg">
  <defs>
    <linearGradient id="grad1" x1="0%" y1="0%" x2="100%" y2="100%">
      <stop offset="0%" style="stop-color:#4F46E5;stop-opacity:1" />
      <stop offset="100%" style="stop-color:#7C3AED;stop-opacity:1" />
    </linearGradient>
    <linearGradient id="grad2" x1="0%" y1="0%" x2="100%" y2="100%">
      <stop offset="0%" style="stop-color:#10B981;stop-opacity:1" />
      <stop offset="100%" style="stop-color:#059669;stop-opacity:1" />
    </linearGradient>
  </defs>
  
  <!-- Background Circle -->
  <circle cx="60" cy="60" r="55" fill="url(#grad1)" stroke="#ffffff" stroke-width="2"/>
  
  <!-- Letter E -->
  <path d="M25 35 L25 85 L55 85 M25 60 L50 60 M25 35 L50 35" 
        stroke="#ffffff" stroke-width="6" stroke-linecap="round" stroke-linejoin="round" fill="none"/>
  
  <!-- Educational Elements -->
  <!-- Book -->
  <rect x="65" y="40" width="25" height="18" rx="2" fill="url(#grad2)" stroke="#ffffff" stroke-width="1"/>
  <line x1="70" y1="45" x2="85" y2="45" stroke="#ffffff" stroke-width="1"/>
  <line x1="70" y1="49" x2="85" y2="49" stroke="#ffffff" stroke-width="1"/>
  <line x1="70" y1="53" x2="80" y2="53" stroke="#ffffff" stroke-width="1"/>
  
  <!-- Graduation Cap -->
  <path d="M65 70 L77.5 65 L90 70 L77.5 75 Z" fill="#ffffff"/>
  <rect x="76" y="70" width="3" height="8" fill="#ffffff"/>
  <circle cx="79" cy="78" r="2" fill="#ffffff"/>
  
  <!-- Sparkle Effects -->
  <circle cx="35" cy="25" r="2" fill="#ffffff" opacity="0.8"/>
  <circle cx="85" cy="30" r="1.5" fill="#ffffff" opacity="0.6"/>
  <circle cx="95" cy="75" r="2" fill="#ffffff" opacity="0.8"/>
  <circle cx="30" cy="95" r="1.5" fill="#ffffff" opacity="0.6"/>
  
  <!-- AI Brain Icon -->
  <circle cx="45" cy="25" r="8" fill="none" stroke="#ffffff" stroke-width="2" opacity="0.7"/>
  <circle cx="42" cy="23" r="1" fill="#ffffff"/>
  <circle cx="48" cy="23" r="1" fill="#ffffff"/>
  <path d="M42 27 Q45 29 48 27" stroke="#ffffff" stroke-width="1" fill="none"/>
</svg>
